# xmcd
#
# Track frame offsets:
#	150
#	4089
#	15764
#	28934
#	43128
#	58965
#	79337
#	96360
#	109712
#	130127
#	138071
#
# Disc length: 1989 seconds
#
# Revision: 0
# Processed by: cddbd v1.5.1PL0 Copyright (c) Steve Scherf et al.
# Submitted via: dBpowerAMP V4.0
#
DISCID=8a07c30b
DTITLE=eddy koekkoek - Oh, mein Mama
DYEAR=1900
DGENRE=Blues
TTITLE0=Ik wil gewoon iets anders (0.52)
TTITLE1=Ik wil gewoon iets anders (2.35)
TTITLE2=Kleintje
TTITLE3=Marguarita
TTITLE4=Grote Klootzak, I feel fine
TTITLE5=I've got a hole in my hand
TTITLE6=Ik ben het zat
TTITLE7=Zalstoe altied bie mie blieven
TTITLE8=Het komt wel weer goed
TTITLE9=Ohlsen
TTITLE10=Oh, mein Mama
EXTD=
EXTT0=
EXTT1=
EXTT2=
EXTT3=
EXTT4=
EXTT5=
EXTT6=
EXTT7=
EXTT8=
EXTT9=
EXTT10=
PLAYORDER=
